<mxfile host="app.diagrams.net" modified="2022-03-23T10:12:33.096Z" agent="5.0 (Windows NT 10.0; Win64; x64) AppleWebKit/537.36 (KHTML, like Gecko) Chrome/99.0.4844.82 Safari/537.36" etag="ywjcUyeppLqY-ew0HstU" version="17.1.5" type="github">
  <diagram id="LnK7I3fKCFZdoakPzNgA" name="Page-1">
    <mxGraphModel dx="1108" dy="3782" grid="1" gridSize="10" guides="1" tooltips="1" connect="1" arrows="1" fold="1" page="1" pageScale="1" pageWidth="2339" pageHeight="3300" math="0" shadow="0">
      <root>
        <mxCell id="0" />
        <mxCell id="1" parent="0" />
        <mxCell id="h4laJ5u4eH6vI6puRdsw-1" value="" style="ellipse;whiteSpace=wrap;html=1;" vertex="1" parent="1">
          <mxGeometry x="200" y="150" width="120" height="80" as="geometry" />
        </mxCell>
        <mxCell id="h4laJ5u4eH6vI6puRdsw-2" value="INICIADO" style="text;html=1;strokeColor=none;fillColor=none;align=center;verticalAlign=middle;whiteSpace=wrap;rounded=0;" vertex="1" parent="1">
          <mxGeometry x="230" y="175" width="60" height="30" as="geometry" />
        </mxCell>
        <mxCell id="h4laJ5u4eH6vI6puRdsw-3" value="" style="shape=flexArrow;endArrow=classic;html=1;rounded=0;" edge="1" parent="1">
          <mxGeometry width="50" height="50" relative="1" as="geometry">
            <mxPoint x="320" y="180" as="sourcePoint" />
            <mxPoint x="430" y="100" as="targetPoint" />
          </mxGeometry>
        </mxCell>
        <mxCell id="h4laJ5u4eH6vI6puRdsw-4" value="" style="rounded=0;whiteSpace=wrap;html=1;" vertex="1" parent="1">
          <mxGeometry x="430" y="80" width="30" height="60" as="geometry" />
        </mxCell>
        <mxCell id="h4laJ5u4eH6vI6puRdsw-5" value="" style="rounded=0;whiteSpace=wrap;html=1;" vertex="1" parent="1">
          <mxGeometry x="470" y="80" width="30" height="60" as="geometry" />
        </mxCell>
        <mxCell id="h4laJ5u4eH6vI6puRdsw-6" value="" style="rounded=0;whiteSpace=wrap;html=1;" vertex="1" parent="1">
          <mxGeometry x="510" y="80" width="30" height="60" as="geometry" />
        </mxCell>
        <mxCell id="h4laJ5u4eH6vI6puRdsw-7" value="LISTO" style="text;html=1;strokeColor=none;fillColor=none;align=center;verticalAlign=middle;whiteSpace=wrap;rounded=0;" vertex="1" parent="1">
          <mxGeometry x="455" y="50" width="60" height="30" as="geometry" />
        </mxCell>
        <mxCell id="h4laJ5u4eH6vI6puRdsw-9" value="El proceso está esperando ser asignado al procesador para su&lt;br/&gt;ejecución.&lt;br/&gt;Una CPU clásica (con un solo núcleo) solo se puede dedicar en cada momento a un proceso" style="text;html=1;strokeColor=none;fillColor=none;align=center;verticalAlign=middle;whiteSpace=wrap;rounded=0;" vertex="1" parent="1">
          <mxGeometry x="230" y="-20" width="270" height="90" as="geometry" />
        </mxCell>
        <mxCell id="h4laJ5u4eH6vI6puRdsw-11" value="" style="shape=flexArrow;endArrow=classic;html=1;rounded=0;fontSize=11;exitX=1;exitY=0.5;exitDx=0;exitDy=0;" edge="1" parent="1" source="h4laJ5u4eH6vI6puRdsw-6">
          <mxGeometry width="50" height="50" relative="1" as="geometry">
            <mxPoint x="530" y="160" as="sourcePoint" />
            <mxPoint x="710" y="110" as="targetPoint" />
          </mxGeometry>
        </mxCell>
        <mxCell id="h4laJ5u4eH6vI6puRdsw-12" value="Selecionado Para Ejecucion" style="text;html=1;strokeColor=none;fillColor=none;align=center;verticalAlign=middle;whiteSpace=wrap;rounded=0;fontSize=11;" vertex="1" parent="1">
          <mxGeometry x="550" y="70" width="120" height="30" as="geometry" />
        </mxCell>
        <mxCell id="h4laJ5u4eH6vI6puRdsw-13" value="" style="ellipse;whiteSpace=wrap;html=1;fontSize=11;" vertex="1" parent="1">
          <mxGeometry x="710" y="70" width="120" height="80" as="geometry" />
        </mxCell>
        <mxCell id="h4laJ5u4eH6vI6puRdsw-16" value="RESERVA" style="text;html=1;strokeColor=none;fillColor=none;align=center;verticalAlign=middle;whiteSpace=wrap;rounded=0;fontSize=11;" vertex="1" parent="1">
          <mxGeometry x="740" y="95" width="60" height="30" as="geometry" />
        </mxCell>
        <mxCell id="h4laJ5u4eH6vI6puRdsw-17" value="" style="endArrow=classic;html=1;rounded=0;fontSize=11;entryX=0.5;entryY=0;entryDx=0;entryDy=0;exitX=0.558;exitY=-0.012;exitDx=0;exitDy=0;exitPerimeter=0;" edge="1" parent="1" source="h4laJ5u4eH6vI6puRdsw-13" target="h4laJ5u4eH6vI6puRdsw-6">
          <mxGeometry width="50" height="50" relative="1" as="geometry">
            <mxPoint x="530" y="140" as="sourcePoint" />
            <mxPoint x="580" y="90" as="targetPoint" />
            <Array as="points">
              <mxPoint x="640" y="40" />
            </Array>
          </mxGeometry>
        </mxCell>
        <mxCell id="h4laJ5u4eH6vI6puRdsw-18" value="EXPULSADO" style="text;html=1;strokeColor=none;fillColor=none;align=center;verticalAlign=middle;whiteSpace=wrap;rounded=0;fontSize=11;rotation=15;" vertex="1" parent="1">
          <mxGeometry x="670" y="30" width="60" height="30" as="geometry" />
        </mxCell>
        <mxCell id="h4laJ5u4eH6vI6puRdsw-20" value="" style="shape=flexArrow;endArrow=classic;html=1;rounded=0;fontSize=11;exitX=0;exitY=1;exitDx=0;exitDy=0;entryX=0.792;entryY=0.088;entryDx=0;entryDy=0;entryPerimeter=0;" edge="1" parent="1" source="h4laJ5u4eH6vI6puRdsw-13" target="h4laJ5u4eH6vI6puRdsw-22">
          <mxGeometry width="50" height="50" relative="1" as="geometry">
            <mxPoint x="970" y="140" as="sourcePoint" />
            <mxPoint x="1020" y="110" as="targetPoint" />
          </mxGeometry>
        </mxCell>
        <mxCell id="h4laJ5u4eH6vI6puRdsw-21" value="COMIENZO DE EJECUCION" style="text;html=1;strokeColor=none;fillColor=none;align=center;verticalAlign=middle;whiteSpace=wrap;rounded=0;fontSize=11;rotation=-25;" vertex="1" parent="1">
          <mxGeometry x="530" y="220" width="100" height="30" as="geometry" />
        </mxCell>
        <mxCell id="h4laJ5u4eH6vI6puRdsw-22" value="" style="ellipse;whiteSpace=wrap;html=1;fontSize=11;" vertex="1" parent="1">
          <mxGeometry x="320" y="290" width="120" height="80" as="geometry" />
        </mxCell>
        <mxCell id="h4laJ5u4eH6vI6puRdsw-24" value="EJECUCION" style="text;html=1;strokeColor=none;fillColor=none;align=center;verticalAlign=middle;whiteSpace=wrap;rounded=0;fontSize=11;" vertex="1" parent="1">
          <mxGeometry x="350" y="315" width="60" height="30" as="geometry" />
        </mxCell>
        <mxCell id="h4laJ5u4eH6vI6puRdsw-27" value="" style="shape=flexArrow;endArrow=classic;startArrow=classic;html=1;rounded=0;fontSize=11;entryX=1;entryY=0.5;entryDx=0;entryDy=0;" edge="1" parent="1" source="h4laJ5u4eH6vI6puRdsw-28" target="h4laJ5u4eH6vI6puRdsw-22">
          <mxGeometry width="100" height="100" relative="1" as="geometry">
            <mxPoint x="880" y="260" as="sourcePoint" />
            <mxPoint x="1050" y="140" as="targetPoint" />
            <Array as="points" />
          </mxGeometry>
        </mxCell>
        <mxCell id="h4laJ5u4eH6vI6puRdsw-28" value="" style="ellipse;whiteSpace=wrap;html=1;fontSize=11;" vertex="1" parent="1">
          <mxGeometry x="750" y="220" width="120" height="80" as="geometry" />
        </mxCell>
        <mxCell id="h4laJ5u4eH6vI6puRdsw-29" value="BLOQUEADO" style="text;html=1;strokeColor=none;fillColor=none;align=center;verticalAlign=middle;whiteSpace=wrap;rounded=0;fontSize=11;" vertex="1" parent="1">
          <mxGeometry x="780" y="245" width="60" height="30" as="geometry" />
        </mxCell>
        <mxCell id="h4laJ5u4eH6vI6puRdsw-31" value="LISTO PERO SUSPENDIDO" style="text;html=1;strokeColor=none;fillColor=none;align=center;verticalAlign=middle;whiteSpace=wrap;rounded=0;fontSize=11;rotation=30;" vertex="1" parent="1">
          <mxGeometry x="630" y="175" width="130" height="30" as="geometry" />
        </mxCell>
        <mxCell id="h4laJ5u4eH6vI6puRdsw-32" value="El proceso está esperando a que ocurra algún suceso, como por&lt;br/&gt;ejemplo la terminación de una operación de E/S." style="text;html=1;strokeColor=none;fillColor=none;align=center;verticalAlign=middle;whiteSpace=wrap;rounded=0;fontSize=11;rotation=-5;" vertex="1" parent="1">
          <mxGeometry x="490" y="315" width="350" height="30" as="geometry" />
        </mxCell>
        <mxCell id="h4laJ5u4eH6vI6puRdsw-34" value="" style="shape=flexArrow;endArrow=classic;startArrow=classic;html=1;rounded=0;fontSize=11;exitX=-0.017;exitY=0.338;exitDx=0;exitDy=0;exitPerimeter=0;entryX=1;entryY=1;entryDx=0;entryDy=0;" edge="1" parent="1" source="h4laJ5u4eH6vI6puRdsw-28" target="h4laJ5u4eH6vI6puRdsw-6">
          <mxGeometry width="100" height="100" relative="1" as="geometry">
            <mxPoint x="850" y="260" as="sourcePoint" />
            <mxPoint x="950" y="160" as="targetPoint" />
          </mxGeometry>
        </mxCell>
        <mxCell id="h4laJ5u4eH6vI6puRdsw-36" value="" style="ellipse;whiteSpace=wrap;html=1;fontSize=11;" vertex="1" parent="1">
          <mxGeometry x="990" y="80" width="120" height="80" as="geometry" />
        </mxCell>
        <mxCell id="h4laJ5u4eH6vI6puRdsw-37" value="TRANSICION" style="text;html=1;strokeColor=none;fillColor=none;align=center;verticalAlign=middle;whiteSpace=wrap;rounded=0;fontSize=11;" vertex="1" parent="1">
          <mxGeometry x="1020" y="105" width="60" height="30" as="geometry" />
        </mxCell>
        <mxCell id="h4laJ5u4eH6vI6puRdsw-38" value="PILA DEL KERNEL EN SWAP" style="text;html=1;strokeColor=none;fillColor=none;align=center;verticalAlign=middle;whiteSpace=wrap;rounded=0;fontSize=11;rotation=-30;" vertex="1" parent="1">
          <mxGeometry x="890" y="190" width="120" height="30" as="geometry" />
        </mxCell>
        <mxCell id="h4laJ5u4eH6vI6puRdsw-41" value="" style="shape=flexArrow;endArrow=classic;startArrow=classic;html=1;rounded=0;fontSize=11;entryX=0.075;entryY=0.75;entryDx=0;entryDy=0;entryPerimeter=0;" edge="1" parent="1" source="h4laJ5u4eH6vI6puRdsw-28" target="h4laJ5u4eH6vI6puRdsw-36">
          <mxGeometry width="100" height="100" relative="1" as="geometry">
            <mxPoint x="790" y="350" as="sourcePoint" />
            <mxPoint x="890" y="250" as="targetPoint" />
          </mxGeometry>
        </mxCell>
        <mxCell id="h4laJ5u4eH6vI6puRdsw-42" value="" style="shape=flexArrow;endArrow=classic;html=1;rounded=0;fontSize=11;exitX=0;exitY=0.5;exitDx=0;exitDy=0;" edge="1" parent="1" source="h4laJ5u4eH6vI6puRdsw-22" target="h4laJ5u4eH6vI6puRdsw-43">
          <mxGeometry width="50" height="50" relative="1" as="geometry">
            <mxPoint x="620" y="230" as="sourcePoint" />
            <mxPoint x="230" y="330" as="targetPoint" />
          </mxGeometry>
        </mxCell>
        <mxCell id="h4laJ5u4eH6vI6puRdsw-43" value="" style="ellipse;whiteSpace=wrap;html=1;fontSize=11;" vertex="1" parent="1">
          <mxGeometry x="170" y="290" width="120" height="80" as="geometry" />
        </mxCell>
        <mxCell id="h4laJ5u4eH6vI6puRdsw-44" value="FINALIZADO" style="text;html=1;strokeColor=none;fillColor=none;align=center;verticalAlign=middle;whiteSpace=wrap;rounded=0;fontSize=11;" vertex="1" parent="1">
          <mxGeometry x="200" y="315" width="60" height="30" as="geometry" />
        </mxCell>
        <mxCell id="h4laJ5u4eH6vI6puRdsw-47" value="" style="endArrow=classic;html=1;rounded=0;fontSize=11;exitX=0.583;exitY=0.013;exitDx=0;exitDy=0;exitPerimeter=0;entryX=0.5;entryY=1;entryDx=0;entryDy=0;" edge="1" parent="1" source="h4laJ5u4eH6vI6puRdsw-43" target="h4laJ5u4eH6vI6puRdsw-1">
          <mxGeometry width="50" height="50" relative="1" as="geometry">
            <mxPoint x="690" y="230" as="sourcePoint" />
            <mxPoint x="740" y="180" as="targetPoint" />
          </mxGeometry>
        </mxCell>
        <mxCell id="h4laJ5u4eH6vI6puRdsw-48" value="REINICIADO" style="text;html=1;strokeColor=none;fillColor=none;align=center;verticalAlign=middle;whiteSpace=wrap;rounded=0;fontSize=11;rotation=-75;" vertex="1" parent="1">
          <mxGeometry x="210" y="245" width="60" height="30" as="geometry" />
        </mxCell>
        <mxCell id="h4laJ5u4eH6vI6puRdsw-49" value="" style="endArrow=none;html=1;rounded=0;fontSize=11;exitX=0;exitY=0.5;exitDx=0;exitDy=0;" edge="1" parent="1" source="h4laJ5u4eH6vI6puRdsw-43">
          <mxGeometry width="50" height="50" relative="1" as="geometry">
            <mxPoint x="310" y="230" as="sourcePoint" />
            <mxPoint x="40" y="330" as="targetPoint" />
          </mxGeometry>
        </mxCell>
      </root>
    </mxGraphModel>
  </diagram>
</mxfile>
